<?xml version="1.0" encoding="utf-8"?>
<!-- Generator: Adobe Illustrator 20.0.0, SVG Export Plug-In . SVG Version: 6.00 Build 0)  -->
<!DOCTYPE svg PUBLIC "-//W3C//DTD SVG 1.1//EN" "http://www.w3.org/Graphics/SVG/1.1/DTD/svg11.dtd">
<svg version="1.1" id="Layer_1" xmlns="http://www.w3.org/2000/svg" xmlns:xlink="http://www.w3.org/1999/xlink" x="0px" y="0px"
	 viewBox="0 0 1686.181 1686.181" enable-background="new 0 0 1686.181 1686.181" xml:space="preserve">
<path d="M1627.188,897.002c-0.519,0.982-1.063,1.95-1.589,2.928c-4.707-22.806-10.971-45.271-18.743-67.229
	c5.781-17.852,10.57-36.014,14.354-54.395c8.126,14.367,15.452,29.172,21.881,44.366c-5.203-19.933-11.612-39.505-19.16-58.613
	c0.237-1.344,0.48-2.688,0.706-4.034c-0.34,1.057-0.708,2.105-1.056,3.16c-8.596-21.642-18.666-42.678-30.133-62.953
	c2.595-18.599,4.157-37.331,4.692-56.104c10.505,12.745,20.275,26.079,29.252,39.935c-8.585-18.727-18.295-36.889-29.047-54.395
	c0-1.365,0.006-2.73-0.005-4.095c-0.152,1.1-0.332,2.196-0.492,3.295c-12.224-19.821-25.794-38.789-40.607-56.764
	c-0.674-18.767-2.388-37.486-5.122-56.066c12.559,10.728,24.496,22.162,35.742,34.249c-11.707-16.952-24.423-33.152-38.051-48.525
	c-0.237-1.344-0.468-2.69-0.716-4.032c0.042,1.11,0.055,2.221,0.088,3.331c-15.48-17.397-32.137-33.721-49.847-48.851
	c-3.923-18.365-8.861-36.501-14.78-54.325c14.231,8.384,27.972,17.572,41.146,27.522c-14.472-14.661-29.809-28.407-45.899-41.18
	c-0.467-1.283-0.928-2.567-1.405-3.847c0.234,1.086,0.44,2.177,0.665,3.265c-18.265-14.445-37.504-27.628-57.573-39.453
	c-7.052-17.405-15.065-34.408-23.989-50.933c15.471,5.785,30.599,12.448,45.301,19.959c-16.798-11.925-34.289-22.799-52.353-32.584
	c-0.682-1.182-1.36-2.367-2.052-3.544c0.419,1.029,0.811,2.068,1.222,3.1c-20.496-11.053-41.732-20.695-63.549-28.856
	c-9.967-15.916-20.811-31.269-32.469-45.994c16.24,3.011,32.295,6.945,48.078,11.789c-18.614-8.827-37.727-16.499-57.216-22.998
	c-0.877-1.046-1.75-2.095-2.636-3.134c0.591,0.94,1.158,1.896,1.742,2.841c-22.104-7.326-44.692-13.134-67.594-17.382
	c-12.57-13.933-25.905-27.161-39.93-39.628c16.505,0.146,32.99,1.204,49.363,3.233c-19.864-5.461-40.019-9.697-60.34-12.713
	c-1.046-0.878-2.088-1.759-3.14-2.629c0.745,0.823,1.469,1.666,2.208,2.495c-23.041-3.377-46.294-5.174-69.586-5.381
	c-14.798-11.538-30.227-22.25-46.205-32.092c16.28-2.722,32.697-4.542,49.174-5.388c-20.511-1.928-41.094-2.6-61.631-2.042
	c-1.182-0.683-2.361-1.37-3.549-2.044c0.877,0.681,1.736,1.385,2.608,2.074c-23.277,0.676-46.489,2.943-69.462,6.784
	c-16.577-8.793-33.632-16.663-51.076-23.582c15.56-5.508,31.412-10.151,47.492-13.845c-20.534,1.662-40.922,4.575-61.049,8.691
	c-1.283-0.467-2.563-0.939-3.85-1.396c0.982,0.519,1.951,1.063,2.929,1.589c-22.806,4.707-45.271,10.971-67.229,18.743
	c-17.852-5.781-36.014-10.57-54.395-14.354c14.367-8.126,29.172-15.452,44.366-21.881c-19.933,5.203-39.505,11.611-58.613,19.16
	c-1.344-0.237-2.688-0.48-4.034-0.706c1.057,0.34,2.105,0.708,3.16,1.057c-21.642,8.596-42.679,18.666-62.953,30.133
	c-18.599-2.595-37.331-4.157-56.104-4.692c12.745-10.506,26.079-20.275,39.935-29.252c-18.727,8.585-36.889,18.295-54.395,29.047
	c-1.365,0-2.73-0.006-4.095,0.005c1.1,0.152,2.196,0.332,3.295,0.492c-19.821,12.223-38.789,25.793-56.764,40.607
	c-18.767,0.674-37.485,2.388-56.066,5.122c10.727-12.559,22.162-24.496,34.249-35.742c-16.952,11.707-33.152,24.423-48.525,38.051
	c-1.344,0.237-2.69,0.468-4.032,0.716c1.11-0.042,2.221-0.055,3.331-0.088c-17.397,15.48-33.721,32.137-48.851,49.847
	c-18.365,3.923-36.501,8.861-54.325,14.78c8.384-14.231,17.572-27.972,27.522-41.147c-14.661,14.472-28.407,29.809-41.18,45.899
	c-1.283,0.467-2.567,0.928-3.847,1.405c1.086-0.234,2.177-0.44,3.265-0.665c-14.445,18.265-27.628,37.504-39.453,57.572
	c-17.405,7.052-34.408,15.065-50.933,23.989c5.785-15.471,12.448-30.599,19.959-45.301c-11.925,16.798-22.799,34.289-32.584,52.353
	c-1.182,0.682-2.367,1.36-3.544,2.052c1.029-0.419,2.068-0.811,3.1-1.222c-11.053,20.496-20.695,41.732-28.856,63.549
	c-15.916,9.967-31.269,20.811-45.994,32.469c3.011-16.24,6.945-32.295,11.789-48.078c-8.827,18.614-16.499,37.727-22.998,57.216
	c-1.046,0.877-2.095,1.75-3.134,2.636c0.94-0.591,1.896-1.158,2.841-1.742c-7.326,22.104-13.134,44.692-17.382,67.594
	c-13.933,12.57-27.161,25.904-39.628,39.93c0.146-16.505,1.204-32.989,3.233-49.363c-5.461,19.864-9.697,40.019-12.713,60.34
	c-0.878,1.046-1.759,2.087-2.629,3.14c0.823-0.745,1.666-1.469,2.495-2.208c-3.377,23.041-5.174,46.294-5.381,69.586
	c-11.538,14.798-22.25,30.227-32.092,46.205c-2.722-16.28-4.542-32.697-5.388-49.174c-1.928,20.511-2.6,41.094-2.042,61.631
	c-0.683,1.182-1.37,2.361-2.043,3.549c0.681-0.877,1.385-1.736,2.074-2.608c0.676,23.277,2.943,46.489,6.784,69.463
	c-8.793,16.577-16.663,33.632-23.582,51.076c-5.508-15.56-10.151-31.412-13.845-47.492c1.662,20.534,4.575,40.922,8.691,61.049
	c-0.467,1.283-0.939,2.563-1.396,3.85c0.519-0.982,1.063-1.95,1.589-2.928c4.707,22.806,10.971,45.271,18.743,67.229
	c-5.781,17.852-10.57,36.014-14.354,54.395c-8.126-14.367-15.452-29.172-21.881-44.366c5.203,19.933,11.612,39.505,19.16,58.613
	c-0.237,1.344-0.48,2.688-0.706,4.034c0.34-1.057,0.708-2.105,1.057-3.16c8.596,21.642,18.666,42.678,30.133,62.953
	c-2.595,18.599-4.158,37.331-4.692,56.104c-10.506-12.745-20.275-26.079-29.252-39.935c8.585,18.727,18.295,36.889,29.047,54.395
	c0,1.365-0.006,2.73,0.005,4.095c0.152-1.1,0.332-2.196,0.492-3.295c12.223,19.821,25.793,38.789,40.607,56.764
	c0.674,18.767,2.388,37.486,5.122,56.066c-12.559-10.727-24.496-22.162-35.742-34.249c11.707,16.952,24.423,33.152,38.051,48.525
	c0.237,1.344,0.468,2.69,0.716,4.032c-0.042-1.11-0.055-2.221-0.088-3.331c15.48,17.397,32.137,33.721,49.847,48.851
	c3.923,18.365,8.861,36.502,14.78,54.325c-14.231-8.384-27.972-17.572-41.146-27.522c14.472,14.661,29.809,28.407,45.899,41.18
	c0.467,1.283,0.928,2.568,1.405,3.847c-0.234-1.086-0.44-2.177-0.665-3.265c18.265,14.445,37.505,27.628,57.572,39.453
	c7.052,17.405,15.065,34.408,23.989,50.933c-15.471-5.785-30.599-12.448-45.301-19.959c16.799,11.925,34.289,22.799,52.353,32.584
	c0.682,1.182,1.36,2.367,2.052,3.544c-0.419-1.029-0.811-2.068-1.222-3.1c20.496,11.054,41.732,20.695,63.549,28.856
	c9.967,15.916,20.811,31.269,32.469,45.994c-16.24-3.011-32.295-6.945-48.078-11.789c18.614,8.827,37.727,16.499,57.216,22.998
	c0.877,1.046,1.75,2.095,2.636,3.134c-0.591-0.94-1.158-1.896-1.742-2.841c22.104,7.326,44.692,13.134,67.594,17.382
	c12.57,13.932,25.904,27.161,39.93,39.628c-16.505-0.146-32.989-1.204-49.363-3.233c19.864,5.461,40.019,9.697,60.34,12.714
	c1.046,0.878,2.088,1.76,3.14,2.629c-0.745-0.823-1.47-1.666-2.208-2.495c23.041,3.377,46.294,5.174,69.586,5.381
	c14.798,11.538,30.227,22.25,46.205,32.093c-16.28,2.722-32.698,4.542-49.174,5.388c20.511,1.928,41.094,2.6,61.631,2.042
	c1.182,0.683,2.361,1.37,3.549,2.043c-0.877-0.681-1.736-1.385-2.608-2.074c23.277-0.675,46.489-2.943,69.463-6.784
	c16.577,8.793,33.632,16.663,51.076,23.582c-15.56,5.508-31.412,10.151-47.492,13.845c20.534-1.662,40.922-4.575,61.049-8.691
	c1.283,0.467,2.563,0.939,3.85,1.396c-0.982-0.519-1.951-1.063-2.929-1.589c22.806-4.707,45.271-10.971,67.229-18.743
	c17.852,5.781,36.014,10.569,54.395,14.354c-14.367,8.126-29.172,15.452-44.366,21.881c19.933-5.203,39.505-11.612,58.613-19.16
	c1.344,0.237,2.688,0.48,4.034,0.706c-1.057-0.34-2.105-0.708-3.16-1.056c21.642-8.596,42.679-18.666,62.953-30.133
	c18.599,2.595,37.331,4.158,56.104,4.692c-12.745,10.505-26.079,20.275-39.935,29.252c18.727-8.585,36.889-18.295,54.395-29.047
	c1.365,0,2.73,0.006,4.095-0.005c-1.1-0.152-2.196-0.332-3.295-0.492c19.821-12.224,38.789-25.794,56.764-40.607
	c18.767-0.674,37.486-2.388,56.066-5.122c-10.727,12.559-22.162,24.496-34.249,35.742c16.952-11.707,33.152-24.423,48.525-38.051
	c1.345-0.237,2.69-0.468,4.032-0.716c-1.11,0.042-2.221,0.055-3.331,0.088c17.397-15.48,33.721-32.137,48.851-49.847
	c18.365-3.923,36.502-8.861,54.325-14.78c-8.384,14.231-17.572,27.972-27.522,41.146c14.661-14.472,28.407-29.809,41.18-45.899
	c1.283-0.467,2.568-0.928,3.847-1.405c-1.086,0.234-2.177,0.44-3.265,0.665c14.445-18.265,27.628-37.504,39.453-57.573
	c17.405-7.052,34.408-15.065,50.933-23.989c-5.785,15.471-12.448,30.599-19.959,45.301c11.925-16.798,22.799-34.289,32.584-52.353
	c1.182-0.682,2.367-1.36,3.544-2.052c-1.029,0.419-2.068,0.811-3.1,1.222c11.053-20.496,20.695-41.732,28.856-63.549
	c15.916-9.967,31.27-20.811,45.994-32.469c-3.011,16.24-6.945,32.295-11.789,48.078c8.827-18.614,16.499-37.727,22.998-57.216
	c1.046-0.877,2.095-1.75,3.134-2.636c-0.94,0.591-1.896,1.158-2.841,1.742c7.326-22.104,13.134-44.692,17.382-67.594
	c13.932-12.57,27.161-25.905,39.628-39.93c-0.146,16.505-1.204,32.99-3.233,49.363c5.461-19.864,9.697-40.019,12.714-60.34
	c0.878-1.046,1.76-2.088,2.629-3.14c-0.823,0.745-1.666,1.469-2.495,2.208c3.377-23.041,5.174-46.294,5.381-69.586
	c11.538-14.798,22.25-30.227,32.093-46.205c2.722,16.28,4.542,32.697,5.388,49.174c1.928-20.511,2.6-41.094,2.042-61.631
	c0.683-1.182,1.37-2.361,2.043-3.549c-0.681,0.877-1.385,1.736-2.074,2.608c-0.675-23.277-2.943-46.489-6.784-69.463
	c8.793-16.577,16.663-33.632,23.582-51.076c5.508,15.56,10.151,31.412,13.845,47.492c-1.662-20.534-4.575-40.922-8.691-61.049
	C1626.259,899.569,1626.731,898.289,1627.188,897.002z M180.471,675.169c-2.803,3.197-5.567,6.421-8.282,9.68
	c-3.457-7.962-6.635-16.006-9.582-24.11c4.213-3.537,8.51-6.992,12.874-10.377C176.934,658.65,178.595,666.921,180.471,675.169z
	 M141.278,904.475c2.749-4.765,5.605-9.481,8.549-14.154c4.199,7.291,8.589,14.496,13.173,21.605
	c-1.541,3.963-3.035,7.938-4.472,11.928C152.556,917.555,146.819,911.082,141.278,904.475z M176.572,1096.023
	c-0.55,8.833-0.863,17.665-0.95,26.487c-11.204-7.733-21.995-15.974-32.352-24.682c1.798-10.261,3.972-20.475,6.525-30.623
	C158.324,1077.128,167.251,1086.745,176.572,1096.023z M152.157,769.219c2.869,7.91,5.941,15.767,9.221,23.564
	c-2.205,3.635-4.368,7.29-6.475,10.971c-4.787-7.241-9.314-14.611-13.623-22.08C144.816,777.459,148.447,773.311,152.157,769.219z
	 M143.265,588.387c7.97-6.702,16.198-13.126,24.673-19.256c0.155,13.084,0.812,26.189,1.988,39.288
	c-6.091,6.404-12,12.96-17.73,19.652C148.586,614.95,145.6,601.709,143.265,588.387z M173.793,485.921
	c-2.725,17.764-4.518,35.689-5.351,53.701c-9.771,9.504-19.144,19.388-28.102,29.621c-2.382-18.432-3.56-36.967-3.551-55.483
	C148.599,503.838,160.951,494.544,173.793,485.921z M130.622,690.531c2.425,12.858,5.347,25.65,8.78,38.345
	c-4.887,7.365-9.567,14.847-14.048,22.433c-5.834-12.294-11.073-24.816-15.687-37.53C116.353,705.795,123.34,698.04,130.622,690.531
	z M130.26,852.806c-3.533,8.102-6.843,16.283-9.939,24.531c-7.88-11.095-15.214-22.516-21.966-34.236
	c5.197-9.023,10.731-17.874,16.599-26.534C119.575,828.81,124.675,840.9,130.26,852.806z M121.939,607.569
	c0.401,17.967,1.748,35.932,4.055,53.815c-7.972,11.057-15.486,22.418-22.531,34.05c-5.546-17.739-9.925-35.787-13.132-54.023
	C100.239,629.59,110.789,618.292,121.939,607.569z M66.746,775.19c7.705-13.362,16.133-26.321,25.251-38.816
	c3.515,17.624,7.961,35.082,13.338,52.293c-5.931,12.273-11.358,24.766-16.276,37.446C80.517,809.607,73.071,792.592,66.746,775.19z
	 M66.75,911.033c5.267-14.497,11.317-28.722,18.127-42.612c6.522,16.746,13.932,33.167,22.216,49.182
	c-3.709,13.116-6.885,26.362-9.527,39.703C86.288,942.535,76,927.072,66.75,911.033z M128.726,1085.035
	c-13.672-12.589-26.49-26.028-38.385-40.217c2.67-15.194,6.158-30.256,10.454-45.119c9.331,15.359,19.48,30.244,30.419,44.577
	C129.838,1057.839,129.011,1071.437,128.726,1085.035z M109.671,972.423c3.551-9.789,7.464-19.466,11.739-29.013
	c6.677,11.253,13.798,22.275,21.366,33.03c-2.073,8.592-3.912,17.224-5.528,25.884C127.562,992.767,118.355,982.793,109.671,972.423
	z M136.806,1172.467c-0.009-15.427,0.811-30.866,2.46-46.249c11.856,13.505,24.436,26.401,37.698,38.618
	c1,13.595,2.547,27.13,4.628,40.572C165.942,1195.385,150.985,1184.375,136.806,1172.467z M182.952,1041.5
	c-6.975-5.167-13.749-10.544-20.353-16.089c1.88-5.17,3.874-10.31,5.961-15.424c5.401,6.451,10.975,12.784,16.724,18.989
	C184.456,1033.147,183.674,1037.321,182.952,1041.5z M184.33,843.083c0.317-0.376,0.627-0.756,0.945-1.132
	c1.242,2.239,2.503,4.47,3.782,6.694C187.456,846.807,185.895,844.944,184.33,843.083z M204.7,396.119
	c13.356-7.721,27.136-14.731,41.283-20.994c-5.768,17.021-10.647,34.363-14.595,51.956c-11.274,7.664-22.222,15.771-32.822,24.294
	C199.42,432.809,201.477,414.351,204.7,396.119z M207.789,1124.583c6.439,5.416,13.029,10.684,19.768,15.797
	c-0.092,4.252-0.137,8.5-0.122,12.742c-7.764-3.876-15.378-7.979-22.842-12.291C205.548,1135.405,206.62,1129.989,207.789,1124.583z
	 M204.591,545.356c4.77-2.756,9.608-5.416,14.501-7.995c-0.009,8.414,0.19,16.848,0.606,25.297c-3.316,2.662-6.6,5.358-9.839,8.097
	C207.836,562.316,206.085,553.846,204.591,545.356z M224.056,1068.393c0.169-0.462,0.33-0.925,0.501-1.387
	c1.933,1.679,3.881,3.344,5.844,4.997C228.267,1070.823,226.162,1069.607,224.056,1068.393z M224.032,617.791
	c0.436-0.251,0.867-0.507,1.304-0.757c0.403,2.539,0.827,5.078,1.27,7.616C225.727,622.368,224.868,620.082,224.032,617.791z
	 M225.768,456.053c-2.119,12.912-3.748,25.932-4.864,39.036c-7.121,5.257-14.087,10.694-20.901,16.298
	c-1.278-13.553-1.901-27.118-1.888-40.648C207.131,465.52,216.352,460.62,225.768,456.053z M195.466,727.74
	c0.834,2.42,1.689,4.837,2.562,7.25c-1.257-2.089-2.471-4.195-3.689-6.299C194.716,728.375,195.088,728.055,195.466,727.74z
	 M195.071,956.197c1.612,1.989,3.241,3.967,4.887,5.936c-1.896-1.533-3.757-3.096-5.621-4.657
	C194.583,957.05,194.823,956.622,195.071,956.197z M199.245,1184.189c10.123,8.291,20.584,16.212,31.374,23.73
	c0.992,8.795,2.218,17.547,3.664,26.25c-12.376-5.67-24.435-11.912-36.147-18.689
	C198.125,1205.063,198.492,1194.627,199.245,1184.189z M204.732,1290.108c-2.688-15.191-4.561-30.537-5.608-45.973
	c14.022,11.241,28.649,21.757,43.831,31.485c3.346,13.215,7.22,26.276,11.603,39.152
	C237.404,1307.618,220.763,1299.373,204.732,1290.108z M1412.278,1165.264c0.468,2.401,0.917,4.801,1.343,7.202
	c-0.473,0.171-0.942,0.349-1.415,0.519C1412.25,1170.415,1412.274,1167.841,1412.278,1165.264z M1406.694,511.246
	c2.313,0.795,4.616,1.606,6.909,2.438c-0.088,0.495-0.169,0.99-0.258,1.485C1411.141,513.846,1408.924,512.539,1406.694,511.246z
	 M1397.649,443.432c-0.647-4.203-1.341-8.395-2.092-12.569c8.319,2.469,16.53,5.188,24.629,8.138
	c0.002,5.509-0.113,11.028-0.327,16.555C1412.578,451.341,1405.174,447.297,1397.649,443.432z M1417.924,395.371
	c-11.409-6.407-23.086-12.392-35.018-17.922c-2.504-8.489-5.231-16.895-8.167-25.215c13.173,3.435,26.132,7.488,38.843,12.128
	C1415.401,374.62,1416.852,384.962,1417.924,395.371z M1394.127,292.015c5.285,14.494,9.795,29.281,13.506,44.301
	c-15.761-8.636-31.992-16.452-48.633-23.396c-5.59-12.434-11.673-24.623-18.225-36.542
	C1358.911,280.444,1376.731,285.674,1394.127,292.015z M1347.735,419.62c0,0.503,0.006,1.005,0.004,1.508
	c-2.401-0.92-4.811-1.823-7.231-2.708C1342.923,418.8,1345.333,419.199,1347.735,419.62z M1319.824,353.206
	c-1.368-4.027-2.778-8.034-4.243-12.015c8.621,0.987,17.179,2.238,25.668,3.738c0.958,5.425,1.803,10.881,2.553,16.361
	C1335.899,358.402,1327.906,355.705,1319.824,353.206z M1331.445,302.354c-12.348-4.329-24.887-8.194-37.598-11.569
	c-3.94-7.925-8.085-15.73-12.421-23.413c13.569,1.095,27.036,2.837,40.359,5.199
	C1325.358,282.357,1328.582,292.289,1331.445,302.354z M1290.063,204.7c7.721,13.356,14.731,27.136,20.994,41.283
	c-17.021-5.768-34.363-10.647-51.956-14.595c-7.664-11.274-15.771-22.222-24.294-32.822
	C1253.372,199.42,1271.83,201.477,1290.063,204.7z M1267.762,1340.508c-0.381,2.416-0.78,4.825-1.201,7.227
	c-0.503,0-1.005,0.006-1.508,0.004C1265.974,1345.339,1266.877,1342.928,1267.762,1340.508z M1259.207,338.495
	c2.445-0.044,4.887-0.07,7.326-0.072c0.087,0.495,0.18,0.988,0.266,1.484C1264.275,339.417,1261.745,338.947,1259.207,338.495z
	 M1242.749,1397.649c4.203-0.648,8.395-1.341,12.569-2.092c-2.469,8.319-5.188,16.53-8.138,24.629
	c-5.509,0.002-11.028-0.113-16.555-0.327C1234.84,1412.578,1238.884,1405.174,1242.749,1397.649z M1227.514,277.864
	c-2.046-3.728-4.131-7.43-6.266-11.096c8.661-0.525,17.307-0.779,25.928-0.776c1.885,5.176,3.665,10.402,5.355,15.669
	C1244.247,280.19,1235.906,278.922,1227.514,277.864z M1230.128,225.768c-12.912-2.119-25.932-3.748-39.036-4.864
	c-5.257-7.121-10.694-14.087-16.298-20.901c13.553-1.278,27.118-1.901,40.648-1.888
	C1220.661,207.131,1225.561,216.352,1230.128,225.768z M1174.935,1406.694c-0.795,2.313-1.606,4.617-2.438,6.909
	c-0.495-0.088-0.99-0.169-1.486-0.258C1172.335,1411.141,1173.643,1408.924,1174.935,1406.694z M1165.264,273.903
	c2.401-0.468,4.801-0.917,7.202-1.343c0.171,0.473,0.349,0.942,0.519,1.415C1170.415,273.931,1167.841,273.907,1165.264,273.903z
	 M1172.422,136.789c9.921,11.81,19.216,24.162,27.839,37.004c-17.764-2.725-35.689-4.518-53.702-5.351
	c-9.504-9.771-19.388-19.144-29.621-28.102C1135.371,137.958,1153.906,136.78,1172.422,136.789z M1097.795,143.265
	c6.702,7.97,13.126,16.198,19.256,24.673c-13.084,0.155-26.189,0.812-39.288,1.988c-6.405-6.091-12.96-12-19.653-17.73
	C1071.231,148.586,1084.472,145.6,1097.795,143.265z M1072.003,1455.781c-1.18,2.133-2.397,4.237-3.61,6.344
	c-0.462-0.169-0.925-0.33-1.387-0.501C1068.685,1459.692,1070.35,1457.744,1072.003,1455.781z M1061.531,226.605
	c2.282-0.878,4.569-1.737,6.859-2.574c0.251,0.436,0.507,0.867,0.757,1.304C1066.608,225.739,1064.069,226.162,1061.531,226.605z
	 M1044.77,90.331c11.822,9.908,23.12,20.458,33.842,31.608c-17.967,0.401-35.932,1.748-53.815,4.055
	c-11.057-7.972-22.418-15.486-34.05-22.531C1008.485,97.917,1026.534,93.538,1044.77,90.331z M1028.977,1500.896
	c4.17,0.829,8.345,1.611,12.524,2.332c-5.167,6.975-10.545,13.749-16.089,20.353c-5.17-1.88-10.31-3.874-15.424-5.961
	C1016.439,1512.22,1022.771,1506.645,1028.977,1500.896z M1001.332,172.189c7.962-3.457,16.006-6.635,24.11-9.582
	c3.537,4.213,6.992,8.51,10.377,12.874c-8.288,1.452-16.559,3.113-24.807,4.989C1007.815,177.668,1004.591,174.904,1001.332,172.189
	z M972.402,109.668c7.984,6.685,15.739,13.672,23.248,20.954c-12.858,2.425-25.65,5.347-38.345,8.78
	c-7.365-4.887-14.847-9.567-22.433-14.048C947.166,119.521,959.687,114.281,972.402,109.668z M962.133,1486.223
	c-1.533,1.896-3.096,3.757-4.657,5.621c-0.426-0.246-0.854-0.486-1.279-0.734C958.186,1489.499,960.164,1487.869,962.133,1486.223z
	 M951.192,198.028c2.089-1.257,4.195-2.471,6.299-3.689c0.316,0.377,0.636,0.749,0.951,1.127
	C956.021,196.301,953.604,197.155,951.192,198.028z M910.991,66.746c13.362,7.705,26.321,16.133,38.816,25.251
	c-17.624,3.515-35.082,7.961-52.293,13.338c-12.273-5.931-24.766-11.358-37.445-16.276
	C876.575,80.517,893.589,73.071,910.991,66.746z M911.926,1523.182c3.963,1.541,7.938,3.035,11.929,4.472
	c-6.3,5.972-12.772,11.709-19.379,17.25c-4.765-2.749-9.481-5.605-14.154-8.549C897.612,1532.156,904.816,1527.766,911.926,1523.182
	z M882.427,154.903c7.241-4.787,14.611-9.314,22.08-13.623c4.215,3.535,8.363,7.166,12.455,10.877
	c-7.909,2.869-15.767,5.941-23.564,9.221C889.763,159.173,886.107,157.011,882.427,154.903z M843.08,98.355
	c9.023,5.197,17.874,10.731,26.534,16.599c-12.242,4.621-24.332,9.72-36.238,15.306c-8.102-3.533-16.283-6.843-24.531-9.939
	C819.938,112.441,831.359,105.107,843.08,98.355z M848.646,1497.124c-1.839,1.601-3.702,3.162-5.562,4.727
	c-0.376-0.317-0.756-0.627-1.132-0.945C844.19,1499.664,846.421,1498.403,848.646,1497.124z M837.536,189.057
	c1.839-1.601,3.702-3.162,5.562-4.727c0.376,0.317,0.756,0.627,1.132,0.945C841.991,186.517,839.76,187.778,837.536,189.057z
	 M775.148,66.75c14.497,5.267,28.722,11.317,42.612,18.127c-16.746,6.522-33.167,13.932-49.182,22.216
	c-13.116-3.709-26.362-6.885-39.703-9.527C743.646,86.288,759.109,76,775.148,66.75z M792.783,1524.803
	c3.635,2.205,7.29,4.368,10.971,6.475c-7.241,4.787-14.611,9.314-22.08,13.623c-4.215-3.535-8.363-7.166-12.455-10.877
	C777.129,1531.155,784.986,1528.083,792.783,1524.803z M762.327,158.528c6.3-5.972,12.772-11.709,19.379-17.25
	c4.765,2.749,9.481,5.605,14.154,8.549c-7.291,4.199-14.496,8.589-21.605,13.173C770.293,161.459,766.317,159.964,762.327,158.528z
	 M713.758,109.671c9.789,3.551,19.466,7.464,29.013,11.739c-11.253,6.677-22.275,13.798-33.03,21.366
	c-8.592-2.073-17.223-3.912-25.884-5.528C693.414,127.562,703.388,118.355,713.758,109.671z M734.989,1488.153
	c-2.089,1.257-4.194,2.471-6.299,3.689c-0.316-0.377-0.636-0.749-0.95-1.127C730.16,1489.88,732.576,1489.026,734.989,1488.153z
	 M724.048,199.958c1.533-1.896,3.096-3.757,4.657-5.621c0.426,0.246,0.854,0.486,1.279,0.734
	C727.995,196.683,726.017,198.312,724.048,199.958z M675.17,1505.71c3.197,2.803,6.421,5.567,9.68,8.282
	c-7.962,3.457-16.006,6.635-24.11,9.582c-3.537-4.213-6.992-8.51-10.377-12.874C658.65,1509.247,666.921,1507.586,675.17,1505.71z
	 M644.681,182.952c5.167-6.975,10.544-13.749,16.089-20.353c5.17,1.88,10.31,3.874,15.424,5.961
	c-6.451,5.401-12.784,10.975-18.989,16.724C653.034,184.456,648.86,183.674,644.681,182.952z M641.363,90.341
	c15.194,2.67,30.256,6.158,45.119,10.454c-15.359,9.331-30.244,19.48-44.578,30.419c-13.563-1.376-27.161-2.203-40.759-2.488
	C613.734,115.054,627.174,102.236,641.363,90.341z M624.65,1459.576c-2.282,0.878-4.569,1.737-6.859,2.574
	c-0.251-0.436-0.507-0.867-0.757-1.304C619.573,1460.442,622.112,1460.019,624.65,1459.576z M614.178,230.4
	c1.181-2.133,2.397-4.237,3.61-6.344c0.462,0.169,0.925,0.33,1.387,0.501C617.496,226.489,615.831,228.437,614.178,230.4z
	 M588.353,143.27c10.261,1.798,20.475,3.972,30.623,6.525c-9.923,8.529-19.54,17.456-28.818,26.777
	c-8.833-0.55-17.665-0.863-26.487-0.95C571.404,164.418,579.646,153.627,588.353,143.27z M570.755,1476.324
	c-8.439,2.021-16.909,3.772-25.398,5.267c-2.756-4.77-5.416-9.608-7.995-14.501c8.414,0.009,16.848-0.19,25.297-0.605
	C565.32,1469.801,568.016,1473.084,570.755,1476.324z M545.802,227.557c-4.252-0.092-8.5-0.137-12.742-0.122
	c3.876-7.764,7.979-15.378,12.291-22.842c5.425,0.955,10.841,2.027,16.247,3.197C556.183,214.229,550.915,220.818,545.802,227.557z
	 M513.714,136.806c15.427-0.009,30.866,0.811,46.249,2.46c-13.505,11.857-26.402,24.436-38.618,37.698
	c-13.596,1-27.131,2.547-40.572,4.628C490.796,165.942,501.806,150.985,513.714,136.806z M520.917,1412.278
	c-2.4,0.468-4.801,0.917-7.202,1.343c-0.172-0.473-0.349-0.942-0.519-1.415C515.767,1412.25,518.341,1412.274,520.917,1412.278z
	 M511.246,279.487c0.794-2.313,1.606-4.616,2.438-6.909c0.495,0.088,0.99,0.168,1.485,0.258
	C513.846,275.04,512.539,277.257,511.246,279.487z M470.701,198.136c10.418-0.011,20.854,0.356,31.291,1.108
	c-8.291,10.123-16.212,20.584-23.73,31.374c-8.795,0.992-17.547,2.218-26.25,3.664C457.681,221.907,463.924,209.848,470.701,198.136
	z M458.667,1408.317c2.046,3.728,4.131,7.43,6.265,11.096c-8.661,0.525-17.307,0.779-25.928,0.776
	c-1.886-5.176-3.665-10.402-5.355-15.669C441.934,1405.991,450.275,1407.259,458.667,1408.317z M430.863,290.624
	c2.469-8.319,5.188-16.53,8.138-24.629c5.509-0.002,11.028,0.114,16.555,0.327c-4.215,7.282-8.259,14.686-12.124,22.21
	C439.229,289.179,435.037,289.873,430.863,290.624z M396.073,204.732c15.191-2.688,30.538-4.561,45.974-5.609
	c-11.241,14.022-21.757,28.649-31.485,43.831c-13.215,3.346-26.276,7.22-39.152,11.603
	C378.563,237.404,386.808,220.763,396.073,204.732z M426.974,1347.686c-2.445,0.045-4.887,0.07-7.326,0.072
	c-0.087-0.495-0.18-0.988-0.266-1.484C421.906,1346.764,424.437,1347.234,426.974,1347.686z M418.419,345.673
	c0.381-2.416,0.78-4.825,1.201-7.227c0.503,0.001,1.005-0.006,1.508-0.004C420.207,340.843,419.304,343.253,418.419,345.673z
	 M364.363,272.6c10.257-1.82,20.599-3.271,31.008-4.342c-6.407,11.409-12.392,23.086-17.922,35.018
	c-8.489,2.504-16.895,5.231-25.215,8.167C355.669,298.269,359.723,285.31,364.363,272.6z M366.357,1332.976
	c1.368,4.027,2.778,8.034,4.243,12.015c-8.621-0.987-17.179-2.239-25.668-3.738c-0.958-5.425-1.803-10.881-2.553-16.361
	C350.282,1327.779,358.276,1330.476,366.357,1332.976z M338.446,1266.562c0.001-0.503-0.006-1.005-0.004-1.508
	c2.401,0.92,4.811,1.823,7.231,2.708C343.258,1267.381,340.848,1266.982,338.446,1266.562z M344.928,344.932
	c5.425-0.958,10.881-1.803,16.361-2.553c-2.886,7.903-5.583,15.897-8.083,23.978c-4.027,1.368-8.034,2.778-12.015,4.243
	C342.177,361.979,343.429,353.421,344.928,344.932z M339.907,419.382c-0.489,2.524-0.96,5.055-1.412,7.592
	c-0.044-2.445-0.07-4.887-0.072-7.326C338.918,419.561,339.411,419.467,339.907,419.382z M292.015,292.054
	c14.494-5.285,29.281-9.795,44.301-13.507c-8.636,15.761-16.452,31.992-23.396,48.633c-12.434,5.59-24.623,11.673-36.542,18.225
	C280.444,327.27,285.674,309.45,292.015,292.054z M272.571,364.397c9.785-3.574,19.718-6.798,29.783-9.661
	c-4.329,12.348-8.194,24.887-11.569,37.598c-7.925,3.94-15.73,8.086-23.413,12.421C268.467,391.186,270.209,377.72,272.571,364.397z
	 M281.661,433.65c-1.47,8.284-2.738,16.625-3.796,25.018c-3.728,2.046-7.43,4.131-11.096,6.265
	c-0.525-8.661-0.779-17.307-0.776-25.928C271.168,437.119,276.394,435.34,281.661,433.65z M272.836,1171.012
	c2.204,1.323,4.421,2.63,6.651,3.923c-2.313-0.794-4.616-1.606-6.909-2.437C272.666,1172.002,272.746,1171.507,272.836,1171.012z
	 M272.56,513.715c0.473-0.172,0.942-0.349,1.415-0.519c-0.044,2.57-0.068,5.144-0.072,7.721
	C273.435,518.517,272.986,516.117,272.56,513.715z M266.322,1230.625c7.282,4.215,14.686,8.259,22.21,12.124
	c0.648,4.203,1.341,8.395,2.092,12.569c-8.319-2.469-16.53-5.188-24.629-8.138C265.993,1241.672,266.108,1236.152,266.322,1230.625z
	 M268.257,1290.81c11.409,6.407,23.086,12.391,35.018,17.922c2.504,8.489,5.231,16.895,8.166,25.215
	c-13.173-3.435-26.132-7.488-38.843-12.128C270.78,1311.561,269.329,1301.219,268.257,1290.81z M292.054,1394.166
	c-5.285-14.494-9.795-29.281-13.507-44.301c15.761,8.636,31.992,16.452,48.633,23.396c5.59,12.433,11.673,24.623,18.225,36.542
	C327.27,1405.737,309.45,1400.507,292.054,1394.166z M354.736,1383.827c12.348,4.329,24.888,8.194,37.598,11.569
	c3.94,7.925,8.086,15.73,12.421,23.414c-13.569-1.095-27.036-2.837-40.359-5.199
	C360.823,1403.824,357.599,1393.892,354.736,1383.827z M396.119,1481.481c-7.721-13.356-14.731-27.136-20.994-41.283
	c17.021,5.768,34.363,10.647,51.956,14.595c7.664,11.274,15.771,22.222,24.294,32.822
	C432.809,1486.761,414.351,1484.704,396.119,1481.481z M456.053,1460.414c12.912,2.119,25.932,3.748,39.036,4.864
	c5.257,7.121,10.694,14.087,16.298,20.901c-13.553,1.278-27.118,1.901-40.648,1.888
	C465.52,1479.051,460.62,1469.829,456.053,1460.414z M513.76,1549.393c-9.921-11.81-19.215-24.162-27.839-37.004
	c17.764,2.725,35.689,4.518,53.701,5.351c9.504,9.771,19.388,19.144,29.621,28.102
	C550.81,1548.223,532.276,1549.401,513.76,1549.393z M588.387,1542.917c-6.702-7.97-13.126-16.198-19.256-24.673
	c13.084-0.156,26.189-0.812,39.288-1.988c6.404,6.091,12.96,12,19.652,17.729C614.95,1537.595,601.709,1540.581,588.387,1542.917z
	 M641.411,1595.85c-11.821-9.908-23.119-20.458-33.842-31.608c17.967-0.402,35.932-1.748,53.815-4.055
	c11.057,7.972,22.418,15.486,34.05,22.531C677.696,1588.265,659.647,1592.643,641.411,1595.85z M713.779,1576.513
	c-7.984-6.685-15.74-13.672-23.248-20.954c12.858-2.425,25.65-5.347,38.345-8.78c7.365,4.887,14.847,9.567,22.433,14.048
	C739.015,1566.66,726.494,1571.9,713.779,1576.513z M775.19,1619.435c-13.362-7.705-26.321-16.133-38.816-25.251
	c17.624-3.515,35.082-7.961,52.293-13.338c12.273,5.931,24.766,11.358,37.445,16.276
	C809.607,1605.664,792.592,1613.11,775.19,1619.435z M843.102,1587.826c-9.023-5.197-17.874-10.731-26.534-16.599
	c12.242-4.621,24.332-9.72,36.238-15.306c8.102,3.533,16.283,6.843,24.531,9.939C866.243,1573.74,854.822,1581.074,843.102,1587.826
	z M911.033,1619.432c-14.497-5.267-28.722-11.317-42.612-18.127c16.746-6.522,33.167-13.932,49.182-22.216
	c13.116,3.709,26.362,6.885,39.703,9.527C942.535,1599.893,927.072,1610.181,911.033,1619.432z M972.423,1576.51
	c-9.789-3.551-19.466-7.464-29.013-11.739c11.253-6.677,22.275-13.798,33.03-21.366c8.592,2.073,17.223,3.912,25.884,5.528
	C992.767,1558.619,982.793,1567.826,972.423,1576.51z M1044.818,1595.84c-15.194-2.67-30.256-6.158-45.119-10.453
	c15.359-9.331,30.244-19.48,44.578-30.419c13.563,1.375,27.161,2.203,40.759,2.488
	C1072.447,1571.127,1059.007,1583.945,1044.818,1595.84z M1097.828,1542.911c-10.261-1.798-20.475-3.972-30.623-6.525
	c9.923-8.529,19.54-17.456,28.818-26.777c8.833,0.55,17.665,0.863,26.487,0.95
	C1114.777,1521.763,1106.535,1532.554,1097.828,1542.911z M1115.426,209.857c8.439-2.021,16.909-3.772,25.399-5.267
	c2.756,4.77,5.416,9.608,7.995,14.501c-8.414-0.009-16.848,0.19-25.297,0.606C1120.861,216.381,1118.165,213.097,1115.426,209.857z
	 M1140.379,1458.624c4.252,0.092,8.5,0.137,12.742,0.122c-3.876,7.764-7.979,15.378-12.291,22.842
	c-5.425-0.955-10.841-2.027-16.247-3.197C1129.998,1471.952,1135.267,1465.363,1140.379,1458.624z M1172.467,1549.375
	c-15.427,0.009-30.866-0.811-46.249-2.46c13.505-11.856,26.402-24.436,38.618-37.698c13.595-1,27.13-2.547,40.572-4.628
	C1195.385,1520.24,1184.375,1535.197,1172.467,1549.375z M1215.48,1488.045c-10.418,0.011-20.854-0.356-31.291-1.108
	c8.291-10.123,16.212-20.584,23.73-31.374c8.795-0.992,17.547-2.218,26.25-3.664
	C1228.5,1464.275,1222.257,1476.333,1215.48,1488.045z M1290.108,1481.449c-15.191,2.688-30.537,4.561-45.973,5.608
	c11.241-14.021,21.757-28.649,31.485-43.831c13.215-3.346,26.276-7.22,39.152-11.603
	C1307.618,1448.777,1299.373,1465.419,1290.108,1481.449z M1321.818,1413.582c-10.257,1.82-20.599,3.271-31.008,4.342
	c6.407-11.409,12.392-23.086,17.922-35.018c8.489-2.504,16.895-5.231,25.214-8.167
	C1330.512,1387.912,1326.458,1400.871,1321.818,1413.582z M1341.253,1341.249c-5.425,0.958-10.881,1.803-16.361,2.553
	c2.886-7.903,5.583-15.897,8.083-23.978c4.027-1.368,8.034-2.778,12.015-4.243
	C1344.004,1324.202,1342.752,1332.76,1341.253,1341.249z M1346.274,1266.799c0.49-2.524,0.96-5.055,1.412-7.592
	c0.045,2.445,0.07,4.887,0.072,7.326C1347.263,1266.62,1346.77,1266.714,1346.274,1266.799z M1394.166,1394.127
	c-14.494,5.285-29.281,9.795-44.301,13.506c8.636-15.761,16.452-31.992,23.396-48.633c12.433-5.59,24.623-11.673,36.542-18.225
	C1405.737,1358.911,1400.507,1376.731,1394.166,1394.127z M1413.61,1321.784c-9.785,3.573-19.718,6.798-29.783,9.661
	c4.329-12.348,8.194-24.887,11.569-37.598c7.925-3.94,15.73-8.085,23.414-12.421
	C1417.714,1294.995,1415.972,1308.462,1413.61,1321.784z M1404.521,1252.532c1.47-8.284,2.738-16.625,3.796-25.017
	c3.728-2.046,7.43-4.131,11.096-6.266c0.525,8.661,0.779,17.307,0.776,25.928
	C1415.013,1249.062,1409.787,1250.841,1404.521,1252.532z M1462.149,1068.39c-0.436,0.251-0.867,0.508-1.304,0.757
	c-0.403-2.539-0.827-5.078-1.27-7.616C1460.454,1063.813,1461.313,1066.099,1462.149,1068.39z M1455.781,614.178
	c2.133,1.181,4.237,2.397,6.344,3.61c-0.169,0.462-0.33,0.925-0.501,1.387C1459.692,617.496,1457.744,615.831,1455.781,614.178z
	 M1458.624,545.802c0.092-4.252,0.137-8.5,0.122-12.742c7.764,3.876,15.378,7.979,22.842,12.291
	c-0.955,5.425-2.027,10.841-3.197,16.247C1471.952,556.183,1465.363,550.915,1458.624,545.802z M1476.324,1115.426
	c2.021,8.439,3.772,16.909,5.267,25.399c-4.77,2.756-9.608,5.416-14.501,7.995c0.009-8.414-0.19-16.848-0.606-25.297
	C1469.801,1120.861,1473.084,1118.165,1476.324,1115.426z M1455.562,478.261c-0.992-8.795-2.218-17.547-3.664-26.25
	c12.376,5.67,24.435,11.912,36.146,18.689c0.011,10.418-0.356,20.854-1.108,31.291
	C1476.813,493.701,1466.352,485.78,1455.562,478.261z M1431.624,371.41c17.153,7.153,33.795,15.399,49.825,24.663
	c2.688,15.191,4.561,30.538,5.608,45.974c-14.021-11.241-28.649-21.757-43.831-31.485
	C1439.88,397.346,1436.007,384.286,1431.624,371.41z M1481.481,1290.063c-13.356,7.721-27.136,14.731-41.283,20.994
	c5.768-17.021,10.647-34.363,14.595-51.956c11.274-7.664,22.222-15.771,32.823-24.294
	C1486.761,1253.372,1484.704,1271.83,1481.481,1290.063z M1460.414,1230.128c2.119-12.912,3.748-25.932,4.864-39.036
	c7.121-5.257,14.087-10.694,20.901-16.298c1.278,13.553,1.901,27.118,1.888,40.648
	C1479.051,1220.661,1469.829,1225.561,1460.414,1230.128z M1490.715,958.441c-0.834-2.42-1.689-4.837-2.562-7.249
	c1.257,2.089,2.471,4.195,3.689,6.299C1491.465,957.806,1491.093,958.126,1490.715,958.441z M1491.11,729.984
	c-1.612-1.989-3.241-3.967-4.887-5.936c1.896,1.533,3.757,3.096,5.621,4.657C1491.598,729.131,1491.358,729.559,1491.11,729.984z
	 M1619.432,775.148c-5.267,14.497-11.317,28.722-18.127,42.612c-6.522-16.746-13.932-33.167-22.216-49.182
	c3.709-13.116,6.885-26.362,9.527-39.703C1599.893,743.646,1610.181,759.109,1619.432,775.148z M1587.826,843.08
	c-5.197,9.023-10.731,17.874-16.599,26.534c-4.621-12.242-9.72-24.332-15.306-36.238c3.533-8.102,6.843-16.283,9.939-24.531
	C1573.74,819.938,1581.074,831.359,1587.826,843.08z M1557.455,601.146c13.672,12.588,26.49,26.028,38.385,40.217
	c-2.67,15.194-6.158,30.256-10.453,45.119c-9.331-15.359-19.48-30.244-30.419-44.577
	C1556.343,628.342,1557.17,614.744,1557.455,601.146z M1576.51,713.758c-3.551,9.789-7.464,19.466-11.739,29.013
	c-6.677-11.253-13.798-22.275-21.366-33.03c2.073-8.592,3.912-17.224,5.528-25.884
	C1558.619,693.414,1567.826,703.388,1576.51,713.758z M1534.024,916.962c-2.869-7.91-5.941-15.767-9.221-23.564
	c2.205-3.635,4.368-7.29,6.475-10.971c4.787,7.241,9.314,14.611,13.623,22.08C1541.366,908.722,1537.734,912.871,1534.024,916.962z
	 M1542.917,1097.795c-7.97,6.702-16.198,13.126-24.673,19.256c-0.156-13.084-0.812-26.189-1.988-39.288
	c6.091-6.405,12-12.96,17.73-19.652C1537.595,1071.231,1540.581,1084.472,1542.917,1097.795z M1536.354,795.86
	c-4.199-7.291-8.589-14.496-13.173-21.605c1.541-3.963,3.035-7.938,4.472-11.928c5.972,6.299,11.709,12.772,17.25,19.379
	C1542.154,786.471,1539.298,791.187,1536.354,795.86z M1509.609,590.158c0.55-8.833,0.863-17.665,0.95-26.487
	c11.204,7.733,21.995,15.975,32.352,24.682c-1.798,10.261-3.972,20.475-6.525,30.623
	C1527.857,609.054,1518.93,599.436,1509.609,590.158z M1549.375,513.714c0.009,15.427-0.811,30.866-2.46,46.249
	c-11.856-13.505-24.436-26.401-37.698-38.618c-1-13.596-2.547-27.131-4.628-40.572
	C1520.24,490.796,1535.197,501.806,1549.375,513.714z M1503.229,644.681c6.975,5.167,13.749,10.544,20.353,16.089
	c-1.88,5.17-3.874,10.31-5.961,15.424c-5.401-6.451-10.975-12.784-16.724-18.989C1501.725,653.034,1502.507,648.86,1503.229,644.681
	z M1500.906,844.23c-1.242-2.239-2.503-4.47-3.782-6.694c1.601,1.839,3.162,3.702,4.727,5.562
	C1501.535,843.474,1501.224,843.854,1500.906,844.23z M1505.71,1011.012c2.803-3.197,5.567-6.421,8.282-9.68
	c3.457,7.962,6.635,16.006,9.582,24.11c-4.213,3.537-8.51,6.992-12.874,10.377C1509.247,1027.531,1507.586,1019.26,1505.71,1011.012
	z M1512.388,1200.26c2.725-17.764,4.518-35.689,5.351-53.701c9.771-9.504,19.144-19.388,28.102-29.621
	c2.382,18.432,3.56,36.967,3.551,55.483C1537.582,1182.343,1525.231,1191.637,1512.388,1200.26z M1555.559,995.65
	c-2.425-12.858-5.347-25.65-8.78-38.346c4.887-7.365,9.567-14.847,14.048-22.433c5.834,12.294,11.073,24.815,15.687,37.53
	C1569.828,980.386,1562.842,988.141,1555.559,995.65z M1564.242,1078.612c-0.402-17.967-1.748-35.932-4.055-53.815
	c7.972-11.057,15.486-22.418,22.531-34.05c5.546,17.739,9.925,35.787,13.132,54.023
	C1585.942,1056.591,1575.392,1067.889,1564.242,1078.612z M1594.184,949.807c-3.515-17.624-7.961-35.082-13.338-52.293
	c5.931-12.273,11.358-24.766,16.276-37.446c8.542,16.506,15.988,33.52,22.313,50.922
	C1611.73,924.353,1603.302,937.312,1594.184,949.807z"/>
</svg>
